<?xml version="1.0" encoding="utf-8"?><svg viewBox="0 0 2000 2000" xmlns="http://www.w3.org/2000/svg" xmlns:xlink="http://www.w3.org/1999/xlink"><style>:root>svg{display:none}:root>svg:target{display:block}</style><svg viewBox="0 0 26 26" id="burger" xmlns="http://www.w3.org/2000/svg"><path d="M24 2H2v4h22V2zm0 9H2v4h22v-4zm0 9H2v4h22v-4z" fill="#81B3D2"/></svg><svg viewBox="0 0 26 26" id="cross" xmlns="http://www.w3.org/2000/svg"><path d="M24.2 4.8L21.4 2l-8.3 8.3L4.8 2 2 4.8l8.3 8.3L2 21.4l2.8 2.8 8.3-8.3 8.3 8.3 2.8-2.8-8.3-8.3 8.3-8.3z" fill="#fff"/></svg><svg viewBox="0 0 16 16" id="dot" xmlns="http://www.w3.org/2000/svg"><path fill-rule="evenodd" clip-rule="evenodd" d="M8 0a8 8 0 110 16A8 8 0 018 0z" fill="#333"/></svg><svg viewBox="0 0 80 80" id="food" xmlns="http://www.w3.org/2000/svg"><path fill-rule="evenodd" clip-rule="evenodd" d="M72.53 36.37c.02-.82.06-1.94-.02-2.23C71.81 18.52 57.45 6 39.8 6S7.69 18.52 6.99 34.14v3H72.5l.02-.77zM39.8 9c15.96 0 29.12 11.22 29.72 25.14H9.98C10.68 20.22 23.84 9 39.8 9zM23.24 48.86l-5.38-4-5.49 4L6 44.16l1.8-2.4 4.58 3.3 5.49-4 5.38 4 5.49-4 5.49 4 5.48-4 5.39 4 5.48-4 5.49 4 5.48-4 5.49 4 4.59-3.3 1.7 2.4-6.3 4.7-5.48-4-5.48 4-5.49-4-5.48 4-5.39-4-5.48 4-5.49-4-5.49 4zM6.3 52.06h67.4c2.4 0 4.29 2.01 4.29 4.21v3.5c0 2.41-2 4.31-4.29 4.31h-1v1A9.91 9.91 0 0162.83 75H17.16a9.92 9.92 0 01-9.87-9.91v-1h-1c-2.4 0-4.29-1.9-4.29-4.21v-3.5c0-2.31 1.9-4.31 4.29-4.31zM62.94 72a6.9 6.9 0 006.88-6.91v-1H10.18v1a6.9 6.9 0 006.88 6.9h45.88zm10.77-10.92c.7 0 1.3-.6 1.3-1.3h.1v-3.4c0-.7-.6-1.3-1.3-1.3H6.3c-.7 0-1.3.6-1.3 1.2v3.5c0 .7.6 1.3 1.3 1.3h67.4zM41.9 21.62a2 2 0 11-4 .01 2 2 0 014 0zm-9.98-3a2 2 0 100-4 2 2 0 000 4zm17.95-2a2 2 0 11-4 0 2 2 0 014 0z" fill="#81B3D2"/></svg><svg viewBox="0 0 80 80" id="housing" xmlns="http://www.w3.org/2000/svg"><path fill-rule="evenodd" d="M75.9 43.18L78 41.1l-9.94-9.84V4.4H54.2v13.12L40.45 4 3 41.2l2.1 2.08 7.84-7.76v37.6H9.02V76h64.16v-2.88h-5.12v-37.7l7.83 7.76zM57.11 7.38h7.93v20.98l-7.93-7.85V7.38zm7.93 65.64h-49.1V32.54l24.5-24.36 24.6 24.36v40.48zm-31.93-4.48h16.06V44.77H33.12v23.77zm13.05-2.88H36.03v-18h10.14v18zM40.85 39.3a7.78 7.78 0 01-7.73-7.75 7.63 7.63 0 017.73-7.66 7.72 7.72 0 017.83 7.66 7.8 7.8 0 01-7.83 7.75zm5.02-7.75a5.01 5.01 0 00-10.04 0 5.01 5.01 0 0010.04 0zM23.08 44.77h-3.01v3.88h3.01v-3.88zm3.01 0h3.01v3.88h-3v-3.88zm-3.01 5.97h-3.01v3.88h3.01v-3.88zm3.01 0h3.01v3.88h-3v-3.88zm29.12-5.97H52.2v3.88h3v-3.88zm3.01 0h3.01v3.88h-3v-3.88zm-3.01 5.97H52.2v3.88h3v-3.88zm3.01 0h3.01v3.88h-3v-3.88z" fill="#81B3D2"/></svg><svg viewBox="0 0 27 35" fill="none" id="htmlacademy" xmlns="http://www.w3.org/2000/svg"><path d="M13.6 0h-.1L0 1.4v24.7l13.5 8 13.4-8V1.4L13.6 0zM25 12.1L13.5 5.3v-.1h-.1l-.1-.1v.1L1.9 12.1v-9l11.5-1.2L25 3.1v9zM13.4 6.8l11.5 6.7-4.5 2.6-7.1-4.2v1.4l5.9 3.5-.9.5-5-3v1.4l3.8 2.3-.8.5-3-1.8v1.4l1.9 1.1-1.8 1.1L2 13.6l11.4-6.8zM1.9 15.1l11.4 6.8v1l-7.9-4.7v1.4l8 4.8v1.1l-8-4.7v1.4l8 4.8 8.1-4.9v-5.2l3.4-2v10l-11.5 6.9L1.9 25v-9.9z" fill="#000"/></svg><svg viewBox="0 0 23 21" id="like" xmlns="http://www.w3.org/2000/svg"><path d="M12.96 3.78l-.62 3.05-.63 2.62h9.09v2.2l-3.03 7.25h-9.4V8.4l4.6-4.62zM2.1 10.5v8.4-8.4zM13.8 0L6.9 6.93c-.42.32-.63.84-.63 1.47v10.5c0 1.16.94 2.1 2.1 2.1h9.4c.84 0 1.57-.52 1.88-1.26l3.14-7.45c.1-.21.1-.53.1-.74v-2.1H23a2.1 2.1 0 00-2.1-2.1h-6.58l1.05-4.83v-.31c0-.43-.21-.84-.42-1.16L13.8 0zM4.18 8.4H0V21h4.18V8.4z"/></svg><svg viewBox="0 0 48 54" id="play" xmlns="http://www.w3.org/2000/svg"><path d="M48 27L0 54V0l48 27z" fill="#fff" fill-opacity=".7"/></svg><svg viewBox="0 0 457 78" id="sedona" xmlns="http://www.w3.org/2000/svg"><path d="M54.5 53c0 .5-.1.9-.1 1.3-.5 4-1.8 7.9-3.9 11.5-2.1 3.6-5 6.4-8.5 8.4-1.3.6-2.7 1.1-4.1 1.6-1.4.4-2.8.8-4.2 1.1-1.2.2-2.3.4-3.5.5-1.2.1-2.3.2-3.4.2h-1.2c-4.6-.2-9.2-1.2-13.7-3.1-4.4-2-8.4-4.5-11.9-7.7l9.3-14.9.2.2.2.2c2.1 2.3 4.5 4.5 7.1 6.4 2.6 1.9 5.7 3 9.1 3.2.1 0 .2 0 .3.1.1 0 .2.1.3.1.1 0 .2 0 .3.1.1 0 .2.1.3.1.3 0 .6 0 1-.1.3 0 .7-.1 1-.2 1.2-.2 2.4-.7 3.5-1.4s2-1.5 2.6-2.6c.1-.2.2-.3.2-.5.1-.2.2-.3.2-.5.2-.5.3-1 .3-1.5.1-.5.1-.9.1-1.3 0-2.1-.9-3.9-2.7-5.3-1.8-1.4-3.8-2.5-5.9-3.3-.9-.3-1.7-.6-2.4-.8-.8-.2-1.5-.4-2.2-.5-.1 0-.2 0-.2-.1-.1 0-.2-.1-.2-.1-3.8-.9-7.4-2.4-10.7-4.5-3.3-2.1-5.6-5-6.9-8.9l-.6-2.4c-.2-.9-.3-1.7-.4-2.7-.1-.3-.1-.6-.1-.9v-.9c0-.6 0-1.2.1-1.9 0-.6.1-1.2.3-1.9.2-1.5.6-3.1 1.2-4.6.5-1.5 1.2-2.9 2.1-4.2 2.5-4.1 5.7-7 9.6-8.8C20.7.9 24.8 0 29 0c1 0 2 .1 3.1.2 1 .1 2.1.3 3.2.4 2.8.5 5.6 1.2 8.3 2.3 2.7 1.1 5.3 2.4 7.6 3.8L44.8 21a55.9 55.9 0 00-6.6-4.1 15.9 15.9 0 00-7.5-1.7h-1c-1.8.2-3.4 1-5 2.4-1.5 1.4-2.3 2.8-2.3 4.4 0 .2 0 .5.1.7 0 .2.1.5.3.7.2.5.4 1 .8 1.5s.8.9 1.3 1.3c.9.7 2.1 1.3 3.7 1.9 1.6.6 3.3 1.1 5.1 1.7 1.5.4 2.9.8 4.3 1.1 1.4.3 2.6.7 3.5 1 4.3 1.5 7.6 4.1 9.8 7.7 2.2 3.6 3.3 7.4 3.4 11.4v.5c-.1.5-.1 1-.2 1.5zm60 6.2v16.6H69.1v-74h45.4V18H89v12.9h24v15.8H89v12.5h25.5zm76.6-2.9c-2.4 5.1-5.8 9.3-10.3 12.5a32.6 32.6 0 01-11.8 5.1c-4.3.9-8.6 1.5-12.9 1.7-1.2.1-2.5.1-3.7.1h-23.8v-74h25.1a73.98 73.98 0 0115.9 1.8c4.1.9 7.8 2.6 11.2 5.1 4.3 3 7.7 7 10.1 12 2.4 5 3.8 10.1 4.1 15.3.1.5.1.9.1 1.4v3a42.4 42.4 0 01-4 16zM174.7 38c0-.3 0-.6-.1-.9-.2-2.9-.9-5.8-2.1-8.5a16.8 16.8 0 00-5.1-6.6c-1.6-1.3-3.4-2.2-5.4-2.7-2-.5-4-.7-6.1-.8h-7.5v40.8c.2 0 .5 0 .8.1.3 0 .5.1.8.1.3 0 .6 0 .8.1.2 0 .5.1.7.1.8 0 1.6 0 2.4-.1.9 0 1.7-.1 2.4-.2 2-.2 4-.5 5.9-1 1.9-.5 3.7-1.4 5.2-2.4 2.5-1.8 4.3-4.2 5.5-7.3 1.2-3.1 1.8-6.3 1.8-9.6V38zm109.6 3.9c0 .8-.1 1.6-.3 2.4-.2 1.6-.4 3.2-.9 4.8-.4 1.6-1 3.2-1.6 4.7a37.6 37.6 0 01-15.2 17.5c-6.9 4.1-14.1 6.2-21.7 6.2-.5 0-1.1 0-1.6-.1-.5 0-1-.1-1.6-.1-2.6-.2-5.2-.7-7.8-1.4a37.74 37.74 0 01-22.8-17.5c-3.7-6.3-5.6-12.9-5.6-19.7 0-1 0-2 .1-3s.2-2.1.5-3.1c.4-2 .9-4 1.6-6.1.7-2 1.5-4 2.6-5.9 3.6-6.6 8.5-11.6 14.9-15.1A40.52 40.52 0 01247.6.4c1 .1 1.9.2 2.8.2a43.06 43.06 0 0116.6 6c5.5 3.6 9.8 8.3 12.8 14.2 3 5.9 4.5 12.1 4.5 18.5v2.6zm-20.2-4.2c0-.5-.1-.9-.1-1.4-.4-3.3-1.4-6.5-3-9.6-1.6-3.1-3.9-5.5-6.7-7.2-.8-.4-1.5-.7-2.3-1-.8-.3-1.5-.6-2.3-.8-.8-.2-1.5-.3-2.3-.4-.8-.1-1.5-.2-2.3-.2-3.9 0-7.6 1.2-10.9 3.7-3.3 2.5-5.7 5.8-7 9.9-.1.2-.1.3-.2.5 0 .2-.1.3-.1.5l-.6 2.1c-.2.7-.3 1.5-.5 2.3-.1.5-.1 1.1-.2 1.6 0 .5-.1 1-.1 1.6v.9c0 .3 0 .6.1.9.2 4.1 1.5 8 3.8 11.7 2.3 3.7 5.4 6.1 9.5 7.3.5.2.9.3 1.4.4l1.5.3c.5.1.9.1 1.4.2.5 0 .9.1 1.4.1 4.1 0 7.8-1.2 11.1-3.7 3.3-2.4 5.7-5.7 7.1-9.8l.6-2.4c.2-.9.3-1.7.4-2.6.1-.5.1-1.1.2-1.6 0-.5.1-1 .1-1.5v-1.8zm87.5 38.1l-28.1-38.2c-.8-.9-1.5-2-2.2-3.3-.7-1.3-1.4-2.6-2-4-.5-1-.9-2-1.3-3s-.8-1.9-1.2-2.7a93.41 93.41 0 011.2 14.7v36.5h-19.5v-74H318l27.9 38c.7 1.1 1.4 2.2 2 3.4.7 1.2 1.3 2.4 1.9 3.7.5 1 .9 2 1.4 3 .5 1 .9 2 1.4 2.9-.1-.9-.2-1.7-.3-2.4L352 48c-.2-1.5-.3-3.1-.3-4.8-.1-1.6-.1-3.3-.1-5V1.9H371v74h-19.4v-.1zm85.1 0L433 62.5h-28.6l-3.8 13.4h-20l25.4-74h25.2l25.7 74h-20.2v-.1zm-15.5-52.1c-.4-1.2-.8-2.4-1.1-3.7l-.9-3.8c-.2-.5-.3-.9-.3-1.3-.1-.4-.2-.8-.2-1.2l-.3 1.2-.3 1.3c-.1.2-.1.3-.1.4 0 .1 0 .3-.1.4-.2 1.2-.5 2.3-.8 3.4l-.9 3.3-7.5 24.5h20.1l-7.6-24.5z" fill="#fff"/></svg><svg viewBox="0 0 80 80" id="souvenirs" xmlns="http://www.w3.org/2000/svg"><path d="M69.2 25.12H44.8c13.6-6.8 14.7-11.1 14.2-13.5-1.1-3.9-5.6-6.9-9.8-5.3-5.5 2.1-7 10.3-8.5 16.2-1.9-6-3.7-13.6-8-17.5-1.2-1.1-3-2.2-5.7-2-4 .4-9.7 5.3-7.3 10.8 2.2 5.3 9.5 8.7 14.4 11.4H11.8a2.8 2.8 0 00-2.8 2.8v11.2c0 1.6 1.3 2.8 2.8 2.8h.3V78h57V42.01h.1c1.6 0 2.8-1.3 2.8-2.8v-11.2c0-1.6-1.3-2.9-2.8-2.9zM50.8 8.82c2.1-.3 4.9 1.3 5.2 3.2.4 2.7-3.3 5.2-5 6.3-2.5 1.7-4.9 2.6-7.2 4 .8-3.7 2.5-12.9 7-13.5zm-22.6 9.8c-2.2-1.5-6.4-4.4-6.3-7.7.1-3.6 5.7-6.5 8.7-3.8 3.8 3.3 5.6 11 7 16.4-3.2-1.6-6.2-2.8-9.4-4.9zM34.1 75H15V42.01h19.1v33zm0-35.99H12v-10.9h22.1v10.9zm10 36H37V28.1h7.1V75zm22 0h-19V42h19.1v33h-.1zM69 39H47.1V28.1H69V39z" fill="#81B3D2"/></svg><svg viewBox="0 0 2000 2000" id="sprite" xmlns="http://www.w3.org/2000/svg"/><svg viewBox="0 0 22 18" id="tg" xmlns="http://www.w3.org/2000/svg"><path d="M21.44 1.62l-3.17 14.95c-.24 1.05-.86 1.31-1.75.82l-4.83-3.56-2.33 2.24c-.25.26-.47.47-.97.47l.35-4.91 8.95-8.09c.39-.35-.09-.54-.6-.2L6.01 10.32l-4.75-1.5C.22 8.5.21 7.8 1.48 7.3L20.1.11c.87-.32 1.62.2 1.34 1.51z" fill="#fff"/></svg><svg viewBox="0 0 22 16" id="tick" xmlns="http://www.w3.org/2000/svg"><path d="M21.8 1.3L20.77.23a.84.84 0 00-1.14 0L8.3 11.96 2.4 5.84a.84.84 0 00-1.14 0L.21 6.93c-.28.3-.28.89 0 1.18l7.42 7.7c.2.19.38.19.57.19.2 0 .38-.1.57-.2L21.61 2.5c.48-.3.48-.79.2-1.18z"/></svg><svg viewBox="0 0 24 14" id="vk" xmlns="http://www.w3.org/2000/svg"><path fill-rule="evenodd" clip-rule="evenodd" d="M23.45.95c.17-.55 0-.95-.8-.95h-2.62c-.67 0-.98.35-1.14.73 0 0-1.34 3.2-3.23 5.27-.61.6-.89.8-1.22.8-.17 0-.42-.2-.42-.74V.95c0-.66-.18-.95-.74-.95H9.15c-.42 0-.67.3-.67.6 0 .61.95.76 1.05 2.5v3.8c0 .84-.16.99-.5.99-.88 0-3.05-3.21-4.33-6.89-.25-.71-.5-1-1.17-1H.9C.15 0 0 .35 0 .73c0 .68.89 4.07 4.14 8.55C6.32 12.34 9.38 14 12.15 14c1.67 0 1.88-.37 1.88-1v-2.32c0-.73.16-.88.69-.88.38 0 1.05.2 2.61 1.67C19.11 13.22 19.4 14 20.41 14h2.62c.75 0 1.13-.37.91-1.1-.24-.72-1.09-1.77-2.21-3.02-.62-.7-1.54-1.47-1.81-1.86-.4-.49-.28-.7 0-1.14 0 0 3.2-4.43 3.53-5.93z" fill="#fff"/></svg><svg viewBox="0 0 460 350" id="welcom" xmlns="http://www.w3.org/2000/svg"><path d="M165.4 70l-.2.2c-1.4 1.5-3 2.2-4.5 2.2l2.8-4.9c1.8-3.1.1-6.1-2.7-6.1-2.3 0-4.1.9-5.8 3.9l-1.5 2.6-1.2 2.1-.2.2c-2.2 2.5-4.3 4.5-5.6 4.5-.7 0-1-.5-.3-1.6l6.4-11.2h2.4l.9-1.4h-2.5l2.8-4.9h-3l-2.8 4.9h-2.7l-.9 1.4h2.7l-6 10.4c-1.3 2.2-.4 4.3 2 4.3 1.7 0 3.7-1.3 5.5-3.1 0 3.8 5.3 4.6 8.5.5h.7c1.8 0 4.6-1.1 6.1-2.9 0-.5-.5-.9-.9-1.1zm-6.4.2h-.1c-1 0-1.8.8-1.8 1.8 0 .4.1.7.3 1v.1c-1.4 2.4-4.8 2-3.1-1.2l2.3-3.9 1.4-2.4c2.1-3.6 5-2.2 3.2.9l-2.2 3.7zm47.9-.2l-.2.2c-2.2 2.5-4.9 4.5-7 4.5-1.8 0-2.9-1.2-1.6-3.6l.3-.5c1.9.8 5.6.4 7.8-3.5l.4-.7c1.6-2.8.1-4.8-2.4-4.8-2.4 0-4.3 1.3-5.6 3.5l-2.9 5-.2.2c-2.2 2.5-4.3 4.5-5.6 4.5-.7 0-1-.5-.3-1.6l4.3-7.6c1.3-2.3.1-3.9-1.6-3.9-1.3 0-2.7.7-4.2 2.3l4.8-8.3h-3L181.6 70l-.2.2c-2.2 2.5-4.3 4.5-5.6 4.5-.7 0-1-.5-.3-1.6l6.4-11.2h2.4l.9-1.4h-2.5l2.8-4.9h-3l-2.8 4.9H177l-.9 1.4h2.7l-6 10.4c-1.3 2.2-.4 4.3 2 4.3 1.2 0 2.5-.6 3.8-1.6l-.8 1.3h3l4.5-7.9c4.6-5.8 6.6-5 5.4-2.8l-3.9 6.8c-1.3 2.2-.4 4.3 2 4.3 1.8 0 3.8-1.4 5.6-3.2.1 1.9 1.7 3.2 4.1 3.2 3.4 0 6.8-2.6 9.2-5.5.1-.6-.4-1-.8-1.2zm-5.7-4.2c1.7-3 4.8-2.5 3 .6l-.4.7c-1.4 2.4-3.4 2.4-4.5 2l1.9-3.3zM316 70l-.2.2c-1.1 1.3-2.4 2.4-3.6 3.3 1-2.9.7-7.2 2.6-11.1l-2.2-1.2c-1.2 1.7-3.9 5.6-6.7 8.8l-.2.2c-2.2 2.5-4.3 4.5-5.6 4.5-.7 0-1-.5-.3-1.6l6.4-11.2h-3l-5.3 9.3c-2.3 2.1-4 3.2-4.6 3-.7-.3 0-1.4.4-2.1l5.8-10.2h-3l-4.7 8.1-.2.2c-1.4 1.5-3 2.2-4.5 2.2l2.8-4.9c1.8-3.1.1-6.1-2.7-6.1-2.3 0-4.1.9-5.8 3.9l-1.5 2.6-1.2 2.1-.2.2c-2.2 2.5-4.9 4.5-7 4.5-1.8 0-2.9-1.2-1.6-3.6l.3-.5c1.9.8 5.6.4 7.8-3.5l.4-.7c1.6-2.8.1-4.8-2.4-4.8-2.4 0-4.3 1.3-5.6 3.5l-2.9 5-.2.2c-2.5 2.9-4.6 4.7-7 5.7l6.7-11.5h-1.8c0-1.2-1.3-2.9-3.1-2.9-1.6 0-3.9 1.3-5.1 3.5l-2.9 5-.2.2c-2.2 2.5-4.3 4.5-5.6 4.5-.7 0-1-.5-.3-1.6l3-5.2c1-1.8.5-2.9-.4-4.1l-1.7-2c-.4-.5-.4-1.2.2-1.7l-1.6-1.7c-1.7 1.5-1.8 3.2-.8 4.6l.3.3c-1.3 1.9-3.1 4.4-5.1 6.7l-.2.2c-1.4 1.5-3 2.2-4.5 2.2l2.8-4.9c1.8-3.1.1-6.1-2.7-6.1-2.3 0-4.1.9-5.8 3.9L230 68l-1.2 2.1-.2.2c-2.5 2.9-4.6 4.7-7 5.7l6.7-11.5h-1.8c0-1.2-1.3-2.9-3.1-2.9-1.6 0-3.9 1.3-5.1 3.5l-4.2 7.3c-1.3 2.2-.4 4.3 2 4.3.8 0 1.8-.4 2.9-1l-.8 1.4c-4 1.2-6.6 2.9-6.6 5.1 0 2.9 4.4 3.5 6.6-.2l2.3-3.9c2.4-.7 4.7-2.2 7.2-4.5 0 3.8 5.3 4.6 8.5.5h.7c1.8 0 4.6-1.1 6.1-2.9 1.4-1.7 2.6-3.2 5-6.4l.4.5c.4.5.5 1.1.2 1.7l-3.2 5.5c-1.3 2.2-.4 4.3 2 4.3 1.5 0 3.2-1 4.8-2.4 0 1.4.9 2.4 2.6 2.4.8 0 1.8-.4 2.9-1L257 77c-4 1.2-6.6 2.9-6.6 5.1 0 2.9 4.4 3.5 6.6-.2l2.3-3.9c2.4-.8 4.8-2.2 7.3-4.6.1 1.9 1.6 3.2 4.1 3.2 2.4 0 4.9-1.4 6.9-3.2-.1 3.9 5.3 4.7 8.5.6h.7c.9 0 2.2-.3 3.3-.9-.8 2.1-.1 3.5 1.6 3.5 1.6 0 3.5-1.5 4.9-2.9-.3 1.6.7 2.9 2.6 2.9 2.5 0 5.3-2.6 7.8-5.5 1.7-2 3.2-4.1 4.3-5.5-1.2 3.1-.5 8.7-3.4 8.7-1 0-1.4-1.1-1.4-1.1l-1.9 1s.5 2.4 3.3 2.4c.3 0 .5 0 .8-.1h.1c3.1-.4 6.1-2.8 8.3-5.4-.1-.5-.6-1-1.1-1.1zm-42.9-4.2c1.7-3 4.8-2.5 3 .6l-.4.7c-1.4 2.4-3.4 2.4-4.5 2l1.9-3.3zm-57.2 15.6c-.6 1.1-1.6 1-1.6.1 0-.8.7-1.7 3-2.6l-1.4 2.5zm1.4-6.7c-.7 0-1-.5-.3-1.6l4.2-7.3c1.6-2.8 4.8-2.1 3.3.6l-2.3 4c-1.8 2.9-3.7 4.3-4.9 4.3zm18.4-4.5h-.1c-1 0-1.8.8-1.8 1.8 0 .4.1.7.3 1v.1c-1.4 2.4-4.8 2-3.1-1.2l2.3-3.9 1.4-2.4c2.1-3.6 5-2.2 3.2.9l-2.2 3.7zm18.8 11.2c-.6 1.1-1.6 1-1.6.1 0-.8.7-1.7 3-2.6l-1.4 2.5zm1.4-6.7c-.7 0-1-.5-.3-1.6l4.2-7.3c1.6-2.8 4.8-2.1 3.3.6l-2.3 4c-1.8 2.9-3.7 4.3-4.9 4.3zm29.5-4.5h-.1c-1 0-1.8.8-1.8 1.8 0 .4.1.7.3 1v.1c-1.4 2.4-4.8 2-3.1-1.2L283 68l1.4-2.4c2.1-3.6 5-2.2 3.2.9l-2.2 3.7zm-155.1-3.4h-28.9v2h28.9v-2zm227 0h-28.9v2h28.9v-2z" fill="#766458"/><path d="M163.2 0h7.7l-1.2 44.9h-14.5l-2-18.5-2 18.5h-14.6L135.5 0h7.6l.6 37.2h.8L149.4 0h7.6l4.9 37.2h.8l.5-37.2zM195 37.2V45h-20.9V0H195v7.7h-13.3v10.8h10.6v7.7h-10.6v10.9H195v.1zm21.4 0V45h-18.3V0h7.6v37.2h10.7zm16.2-8.8l7.7-1.8v13.6c0 2.6-2.2 4.7-4.7 4.7h-11.5c-2.6 0-4.7-2.2-4.7-4.7V4.7c0-2.6 2.1-4.7 4.7-4.7h11.5c2.5 0 4.7 2.1 4.7 4.7v9.1l-7.7 1.8v-8h-5.5v29.5h5.5v-8.7zM261.1 0c2.5 0 4.7 2.1 4.7 4.7v35.4c0 2.6-2.2 4.7-4.7 4.7h-11.5c-2.6 0-4.7-2.2-4.7-4.7V4.7c0-2.6 2.1-4.7 4.7-4.7h11.5zm-3 7.7h-5.5v29.5h5.5V7.7zM290.8 0h7.6v44.9h-7.6V22.8l-3.1 11.4h-7.5l-3-11.4v22.1h-7.6V0h7.6l6.8 21.7L290.8 0zm32.3 37.2V45h-20.9V0h20.9v7.7h-13.3v10.8h10.6v7.7h-10.6v10.9h13.3v.1z" fill="#81B3D3"/><path d="M44.5 157.6c-3.6-3-8.1-5-12.9-5-3.6 0-8.3 2.1-8.3 6.3 0 4.4 5.3 6.1 8.6 7.1l5 1.5c10.4 3.1 18.5 8.3 18.5 20.4 0 7.4-1.8 15.1-7.7 20.1-5.9 5-13.7 7-21.2 7-9.4 0-18.7-3.2-26.3-8.5L8.3 191c4.9 4.3 10.6 7.7 17.3 7.7 4.6 0 9.4-2.3 9.4-7.5 0-5.5-7.6-7.3-11.8-8.5C11 179.1 3 176 3 161.5c0-15.2 10.8-25.1 25.8-25.1 7.5 0 16.8 2.4 23.4 6.2l-7.7 15zm47.3-2.8v12.5h21.9v16.5H91.8v12.9H115v16.5H72.4v-74.8H115v16.5l-23.2-.1zm37.6-16.4H157c20.8 0 38 16.4 38 37.4s-17.3 37.4-38 37.4h-27.6v-74.8zm19.5 58.3h4.4c11.6 0 21.5-6.4 21.5-20.9 0-13.4-8.8-20.9-21.3-20.9h-4.6v41.8zm138-22.3c0 24.2-17.4 41.3-41.4 41.3s-41.4-17.1-41.4-41.3c0-22.6 19.9-38.5 41.4-38.5s41.4 15.9 41.4 38.5zm-62.6.1c0 12.9 9.5 22.3 21.1 22.3 11.6 0 21.1-9.4 21.1-22.3 0-10.3-9.5-19.8-21.1-19.8-11.5 0-21.1 9.5-21.1 19.8zm72.9-36.1h19.5l35.6 45.8h.2v-45.8H372v74.8h-19.5l-35.6-45.9h-.2v45.9h-19.5v-74.8zm110.1 61.8l-5.2 13h-20.6l28.8-74.8h21.2l28.2 74.8H439l-4.9-13h-26.8zm13.6-38.7h-.2l-8 23.8h16.2l-8-23.8zM108.1 287.7c7.7-2.6 8.2-12.2.7-12.2-2.1 0-4.6 1.5-6.3 4.4l-10.2 17.7c-.5.8-.9 1.5-1.5 2.2-2.6-3.6-1.9-9 1.8-11.4l-1.5-1.9c-8 5.1-5.6 19.7 7.7 19.7 11.3 0 16.6-13.6 9.3-18.5zm-9.4 15.6c-2.3 0-4-.5-5.5-1.3.7-.8 1.3-1.7 1.9-2.7l6.4-11.1 1 .1c8.9 1.9 5.4 15-3.8 15zm4.1-17.3l3.1-5.3c2.8-4.8 6.3-2 4.4 1.6-1.5 2.8-3.6 3.6-7.5 3.7z" fill="#fff"/><path d="M140.2 300c-.6 2.2.6 4.1 3.1 4.1 1.5 0 3.4-1 5.3-2.5.2 1.5 1.4 2.5 3.3 2.5 2 0 4.2-1.4 6.4-3.4-.4 2 .5 3.4 2.4 3.4 2.1 0 4.4-1.9 6.2-3.6-.4 2 .8 3.6 3.2 3.6 3.1 0 6.7-3.4 9.9-7 0-.1-.1-.1-.1-.2 2.1-2.4 3.9-5 5.3-6.8-1.5 3.9-.7 11-4.3 11-1.3 0-1.8-1.4-1.8-1.4l-2.4 1.2s.7 3.1 4.2 3.1c.4 0 .7 0 1.1-.1h.1c2.8-.4 5.5-2.1 7.9-4.2.1 2.5 2 4.3 5.1 4.3 4.3 0 8.6-3.4 11.7-7-.3-.5-.9-1.1-1.4-1.3l-.3.3c-2.7 3.2-6.2 5.7-8.9 5.7-2.3 0-3.7-1.5-2-4.5l.4-.7c2.4 1 7 .5 9.9-4.4l.5-.9c2-3.5.1-6.1-3-6.1s-5.5 1.6-7.1 4.4l-3.7 6.3h-.1l-.3.3c-1.4 1.6-3.1 3.1-4.6 4.1 1.2-3.6.9-9.2 3.3-14l-2.8-1.5c-1.6 2.2-5 7.1-8.4 11.1l.1.1-.1.2c-2.7 3.2-5.4 5.7-7.1 5.7-.8 0-1.3-.6-.4-2.1l8.1-14.2h-3.8l-6.7 11.8c-2.9 2.6-5.1 4.1-5.8 3.8-.9-.4 0-1.8.5-2.6l7.4-12.9h-3.8l-6 10.4c-.1-.1-.2-.1-.3-.2l-.3.3c-2.7 3.2-5.4 5.7-7.1 5.7-.8 0-1.3-.6-.4-2.1l6.1-10.7h-2.2c.1-1.6-1.5-3.8-4-3.8-2 0-4.9 1.6-6.5 4.4l-3.8 6.6c-.2-.2-.4-.3-.6-.4l-.3.3c-2.7 3.2-6.2 5.7-8.9 5.7-2.3 0-3.7-1.5-2-4.5l3.9-6.8c2.2-3.8 6.1-3.1 3.8.8l-.5.9h3.1l.5-.9c2-3.5.1-6.1-3-6.1s-5.5 1.6-7.1 4.4l-3.8 6.5c-.1-.1-.2-.1-.3-.2l-.3.3c-2.7 3.2-6.2 5.7-8.9 5.7-2.3 0-3.7-1.5-2-4.5l.4-.7c2.4 1 7 .5 9.9-4.4l.5-.9c2-3.5.1-6.1-3-6.1s-5.5 1.6-7.1 4.4l-4 6.8c-2.4 4-.3 7.8 4.2 7.8 3.3 0 6.7-2 9.4-4.6-.1 2.6 1.9 4.6 5.1 4.6 3.2-.2 6.3-2 9-4.3zm58-9.6c2.2-3.8 6.1-3.1 3.8.8l-.5.9c-1.8 3.1-4.3 3-5.7 2.5l2.4-4.2zm-54.2 9.3l5.3-9.2c2-3.5 6.1-2.6 4.2.8l-3 5.2c-2.3 3.6-4.6 5.3-6.1 5.3-.8-.1-1.3-.6-.4-2.1zm-24.2-9.3c2.2-3.8 6.1-3.1 3.8.8l-.5.9c-1.8 3.1-4.3 3-5.7 2.5l2.4-4.2zm128.6 13.7c4.3 0 8.6-3.4 11.7-7-.3-.5-.9-1.1-1.4-1.3l-.3.3c-2.7 3.2-6.2 5.7-8.9 5.7-2.3 0-3.7-1.5-2-4.5l.4-.7c2.4 1 7 .5 9.9-4.4l.5-.9c2-3.5.1-6.1-3-6.1s-5.5 1.6-7.1 4.4l-3.7 6.3s-.1 0-.1-.1l-.3.3c-2.7 3.2-5.4 5.7-7.1 5.7-.8 0-1.3-.6-.4-2.1l5.5-9.6c1.6-2.9.1-5-2-5-1.6 0-3.4.9-5.3 2.9l6.1-10.5H237L226.3 296c-.1-.1-.3-.2-.4-.3l-.3.3c-2.7 3.2-5.4 5.7-7.1 5.7-.8 0-1.3-.6-.4-2.1l8.1-14.2h3.1l1.1-1.8h-3.1l3.6-6.2h-3.8l-3.6 6.2h-3.4l-1.1 1.8h3.5l-7.6 13.2c-1.6 2.8-.5 5.4 2.6 5.4 1.9 0 3.9-1.2 6-3l-1.5 2.6h3.8l5.8-10c5.8-7.3 8.4-6.4 6.8-3.6l-4.9 8.6c-1.6 2.8-.5 5.4 2.6 5.4 2.3 0 4.9-1.8 7.3-4.2 0 2.5 1.9 4.3 5 4.3zm3.1-13.7c2.2-3.8 6.1-3.1 3.8.8l-.5.9c-1.8 3.1-4.3 3-5.7 2.5l2.4-4.2zm111.9 5.4l-.3.3c-2.7 3.2-5.4 5.7-7.1 5.7-.8 0-1.3-.6-.4-2.1l12.8-22.2h-3.8l-5.6 9.6c-.7-1.1-1.9-2-3.5-2-2 0-4.9 1.6-6.5 4.4l-3.7 6.4c-.1 0-.2-.1-.2-.1l-.3.3c-2.7 3.2-5.4 5.7-7.1 5.7-.8 0-1.3-.6-.4-2.1l5.5-9.6c1.6-2.9.1-5-2-5-1.6 0-3.4.9-5.3 2.8l1.4-2.5h-3.8l-6.1 10.5c-.1-.1-.2-.2-.4-.2l-.3.3c-2.7 3.2-5.4 5.7-7.1 5.7-.8 0-1.3-.6-.4-2.1l6.1-10.7H323c.1-1.6-1.5-3.8-4-3.8-2 0-4.9 1.6-6.5 4.4l-3.7 6.3-.2.2c-2.7 3.2-5.4 5.7-7.1 5.7-.8 0-1.3-.6-.4-2.1l3.8-6.6c1.3-2.3.7-3.6-.5-5.1l-2.1-2.6c-.5-.7-.5-1.5.2-2.2l-2-2.2c-2.2 1.9-2.3 4.1-1 5.8l.3.4c-1.7 2.4-3.9 5.6-6.4 8.5l.3.3c-3.1 3.6-5.8 5.9-8.8 7.2l4.8-8.2H286l-.4.7c-2 3.5-4.3 6.1-7.3 6.1-2.6 0-3.1-2.6-.8-6.5l1.1-1.9c.7.1 1.4.2 2.2.2 13.5 0 20-18.1 8.1-18.1-2.1 0-4.6 1.5-6.3 4.4l-5.9 10.2a6.22 6.22 0 01-3.4-5.4c0-1.8.8-3.5 2.4-4.8l-1.2-2.2c-2.7 1.9-3.9 4.5-3.9 7.1 0 3 1.7 5.9 4.8 7.5l-1.1 2c-2.7 4.6-2.2 9.7 3.2 9.7 1.6 0 3-.5 4.1-1.2l-1 1.7c-5.1 1.6-8.3 3.6-8.3 6.5 0 3.6 5.6 4.4 8.3-.3l2.9-5c3.9-1.2 7.8-3.9 12-8.8-.1-.1-.1-.2-.2-.4 1.7-2 3.1-3.9 6-7.8l.5.6c.5.6.7 1.4.2 2.2l-4 7c-1.6 2.8-.5 5.4 2.6 5.4 1.9 0 4-1.2 6-3 0 1.7 1.1 3 3.3 3 1.5 0 3.4-1 5.3-2.5.2 1.5 1.4 2.5 3.3 2.5 1.8 0 3.8-1.1 5.7-2.8l-1.4 2.4h3.8l5.8-10.1c5.8-7.3 8.4-6.3 6.7-3.5l-4.9 8.6c-1.6 2.8-.5 5.4 2.6 5.4 2 0 4.2-1.4 6.4-3.3-.2 1.9 1 3.3 3.3 3.3 1.5 0 3.4-1 5.3-2.5.2 1.5 1.4 2.5 3.3 2.5 3.1 0 6.7-3.4 9.9-7-.4-.2-1.1-.8-1.6-1zm-77.9-14.2c1.1-1.9 2.4-2.8 3.4-2.8 6 0 1.8 12.3-8.1 12.3h-.8l5.5-9.5zm-8.1 28.6c-.8 1.4-2.1 1.2-2.1.2s.9-2.1 3.8-3.2l-1.7 3zm39.7-13.8c-2.3 3.6-4.6 5.3-6.1 5.3-.8 0-1.3-.6-.4-2.1l5.3-9.2c2-3.5 6.1-2.6 4.2.8l-3 5.2zm36.7-.2c-2.3 3.8-4.6 5.5-6.2 5.5-.8 0-1.3-.6-.4-2.1l5.3-9.2c2-3.5 6.1-2.6 4.2.8l-2.9 5zm-117.1 35.6l-.3.3c-2.7 3.2-5.4 5.7-7.1 5.7-.8 0-1.3-.6-.4-2.1l5.5-9.6c1.6-2.9.1-5-2-5-1.6 0-3.4.9-5.3 2.8l1.4-2.5h-3.8l-6.1 10.6c-.2-.1-.3-.2-.5-.3l-.3.3a7.79 7.79 0 01-5.7 2.8l3.6-6.2c2.3-4 .2-7.7-3.4-7.7-2.9 0-5.2 1.2-7.4 5l-1.9 3.2-1.6 2.8c-.1-.1-.2-.1-.3-.2l-.3.3c-3.1 3.6-5.8 5.9-8.8 7.2l10.4-17.8h-3.8l-6.7 11.7c-2.9 2.7-5.2 4.2-5.9 3.9-.9-.4 0-1.8.5-2.6l7.4-12.9h-3.8L184 332c-.1-.1-.2-.1-.3-.2l-.3.3c-2.7 3.2-5.4 5.7-7.1 5.7-.8 0-1.3-.6-.4-2.1l5.5-9.6c1.6-2.9.1-5-2-5-1.6 0-3.4.9-5.3 2.8l1.4-2.5h-3.8l-6.1 10.5c-.1-.1-.2-.2-.4-.2l-.3.3c-2.7 3.2-5.4 5.7-7.1 5.7-.8 0-1.3-.6-.4-2.1l6.1-10.7h-2.2c.1-1.6-1.5-3.8-4-3.8-2 0-4.9 1.6-6.5 4.4l-3.9 6.8c-.3-.2-.6-.4-.8-.5l-.3.3c-2.7 3.2-6.1 5.7-9.8 5.7-2.6 0-4.2-2.6-1.9-6.5l1.1-1.9c.7.1 1.4.2 2.2.2 4 0 8.6-2.1 11.6-7.3 1.1-1.9 1.5-3.6 1.5-5.1 0-3.4-2.2-5.7-5-5.7-2.1 0-4.6 1.5-6.3 4.4l-5.9 10.2a6.22 6.22 0 01-3.4-5.4c0-1.8.8-3.5 2.4-4.8l-1.2-2.2c-2.7 1.9-3.9 4.5-3.9 7.1 0 3 1.7 5.9 4.8 7.5l-1.1 2c-2.7 4.6-1.1 9.7 4.3 9.7 4.2 0 7.4-1.9 10-4.4-.8 2.4.4 4.4 3.1 4.4 1.5 0 3.4-1 5.3-2.5.2 1.5 1.4 2.5 3.3 2.5 1.8 0 3.8-1.1 5.7-2.8l-1.4 2.4h3.8l5.8-10.1c5.8-7.3 8.4-6.3 6.7-3.5l-4.9 8.6c-1.6 2.8-.5 5.4 2.6 5.4 2 0 4.3-1.4 6.5-3.4-.5 2.1.5 3.4 2.4 3.4 1.8 0 3.9-1.5 5.6-3.1l-2.1 3.6c-5.1 1.5-8.4 3.6-8.4 6.5 0 3.6 5.6 4.4 8.3-.3l2.9-5c3.2-1 6.3-3 9.6-6.2-.5 5.3 6.5 6.5 10.8 1.1h.8c1.4 0 3.3-.5 5-1.5l-2.5 4.4h3.8l5.8-10.1c5.8-7.3 8.4-6.3 6.7-3.5l-4.9 8.6c-1.6 2.8-.5 5.4 2.6 5.4s6.7-3.4 9.9-7c-.1-.3-.8-.9-1.3-1.1zm-94.4-14.2c1.1-1.9 2.4-2.8 3.4-2.8 1.4 0 2.1.9 2.1 2.3 0 3.5-4.3 9.9-10.2 9.9h-.8l5.5-9.4zm13.4 14.8c-2.3 3.6-4.6 5.3-6.1 5.3-.8 0-1.3-.6-.4-2.1l5.3-9.2c2-3.5 6.1-2.6 4.2.8l-3 5.2zm28.8 13.8c-.8 1.4-2.1 1.2-2.1.2s.9-2.1 3.8-3.2l-1.7 3zm25.6-14.2h-.2c-1.2 0-2.2 1-2.2 2.3 0 .5.1.9.4 1.3v.1c-1.8 3.1-6.1 2.5-3.9-1.5l2.9-5 1.8-3.1c2.7-4.5 6.3-2.7 4 1.2l-2.8 4.7zm114.5 1.1c-.2-.6-.9-1.2-1.4-1.3l-.3.3c-1.4 1.6-3.1 3.1-4.6 4.1 1.2-3.6.9-9.2 3.3-14l-2.8-1.5c-1.6 2.2-5 7.1-8.4 11.1l-.3.3c-2.7 3.2-5.4 5.7-7.1 5.7-.8 0-1.6-.8-1.6-2.6v-1.6c2.7.3 5.5-1.4 7.3-4.5l1-1.8c3.5-6.1-2.2-8.1-6.1-4.5l5.4-9.4h-3.8l-10.8 18.8c-.2-.2-.5-.4-.7-.5l-.3.3c-2.7 3.2-6.2 5.7-8.9 5.7-2.3 0-3.7-1.5-2-4.5l3.9-6.8c2.2-3.8 6.1-3.1 3.8.8l-.5.9h3.1l.5-.9c2-3.5.1-6.1-3-6.1s-5.5 1.6-7.1 4.4l-3.7 6.4c-.1 0-.2-.1-.2-.1l-.3.3c-2.7 3.2-5.4 5.7-7.1 5.7-.8 0-1.3-.6-.4-2.1l8.1-14.2h-3.8l-6.7 11.8c-2.9 2.6-5.1 4.1-5.8 3.8-.9-.4 0-1.8.5-2.6l7.4-12.9h-3.8l-7.4 12.7c-.8.7-1.7 1.4-2.4 2 1.2-3.6.9-9.2 3.3-14l-2.8-1.5c-1.6 2.2-10.3 13.8-13.8 17.8.3.5.9.9 1.4 1.3 2.2-2.5 9.4-11.8 10.7-13.6-1.5 3.9-.7 11-4.3 11-1.3 0-1.8-1.4-1.8-1.4l-2.4 1.2s.7 3.1 4.2 3.1c.4 0 .7 0 1.1-.1h.1c1.9-.3 3.8-1.1 5.6-2.4 0 1.5.9 2.5 2.5 2.5 2.1 0 4.4-1.9 6.2-3.6-.4 2 .8 3.6 3.2 3.6 2.4 0 5-1.9 7.5-4.4 0 2.5 2 4.4 5.1 4.4 3.1 0 6.1-1.7 8.8-4l-2.1 3.7h3.8l4.3-7.5v3c0 3.2.6 4.9 3.7 4.9s6.7-3.4 9.9-7c2.2-2.5 4-5.1 5.4-6.9-1.5 3.9-.7 11-4.3 11-1.3 0-1.8-1.4-1.8-1.4l-2.4 1.2s.7 3.1 4.2 3.1c.4 0 .7 0 1.1-.1h.1c3.8-.7 7.7-3.8 10.5-7.1zm-25.2-3l1.1-1.9c4.4-6.1 7.4-4.4 6-2.1l-1.8 3.1c-1.1 2-4.4 3.4-5.3.9zm25.1 5.6c-1.2 0-2.2 1-2.2 2.2 0 1.2.9 2.2 2.2 2.2 1.2 0 2.2-.9 2.2-2.2 0-1.2-1-2.2-2.2-2.2zm.2-1.5h3.8l11.9-20.7h-3.8l-11.9 20.7zM80.4 277.6c0 .3-.1.6-.2.9-.1.3-.3.6-.5.8-.2.2-.5.4-.8.6-.3.1-.7.2-1.1.2-.5 0-.9-.1-1.3-.3-.4-.2-.8-.4-1.1-.7-.3-.3-.4-.6-.6-1-.1-.4-.2-.8-.2-1.3 0-.9.2-1.6.5-2.4.3-.7.7-1.4 1.3-1.9.2-.2.5-.5.8-.7.3-.2.6-.4.9-.5.3-.1.5-.3.7-.4.2-.1.3-.1.4-.2l1.4 2c-.2.1-.5.2-.8.4-.3.1-.6.3-.9.5-.3.2-.5.5-.7.8-.2.3-.3.6-.3 1 .7 0 1.2.2 1.7.6.6.3.8.9.8 1.6zm7.9 0c0 .3-.1.6-.2.9-.1.3-.3.6-.5.8-.2.2-.5.4-.8.6-.3.1-.7.2-1.1.2-.5 0-.9-.1-1.3-.3-.4-.2-.8-.4-1.1-.7-.2-.3-.4-.6-.6-1-.1-.4-.2-.8-.2-1.3 0-.9.2-1.6.5-2.4.3-.7.7-1.4 1.3-1.9.2-.2.5-.5.8-.7.3-.2.6-.4.9-.5.3-.1.5-.3.7-.4.2-.1.3-.1.4-.2l1.4 2c-.2.1-.5.2-.8.4-.3.1-.6.3-.9.5-.3.2-.5.5-.7.8-.2.3-.3.6-.3 1 .7 0 1.2.2 1.7.6.5.3.8.9.8 1.6zm265.1 58.9c0-.3.1-.6.2-.9.1-.3.3-.6.5-.8.2-.2.5-.4.8-.6.3-.1.7-.2 1.1-.2.5 0 .9.1 1.3.3.4.2.8.4 1.1.7.3.3.4.6.6 1 .1.4.2.8.2 1.3 0 .9-.2 1.6-.5 2.4-.3.7-.7 1.4-1.3 1.9-.2.2-.5.5-.8.7-.3.2-.6.4-.9.5-.3.1-.5.3-.7.4-.2.1-.3.1-.4.2l-1.4-2c.2-.1.5-.2.8-.4.3-.1.6-.3.9-.5.3-.2.5-.5.7-.8.2-.3.3-.6.3-1-.7 0-1.2-.2-1.7-.6-.5-.3-.8-.9-.8-1.6zm-7.8 0c0-.3.1-.6.2-.9.1-.3.3-.6.5-.8.2-.2.5-.4.8-.6.3-.1.7-.2 1.1-.2.5 0 .9.1 1.3.3.4.2.8.4 1.1.7.2.3.4.6.6 1 .1.4.2.8.2 1.3 0 .9-.2 1.6-.5 2.4-.3.7-.7 1.4-1.3 1.9-.2.2-.5.5-.8.7-.3.2-.6.4-.9.5-.3.1-.5.3-.7.4-.2.1-.3.1-.4.2l-1.4-2c.3-.1.5-.2.8-.4.3-.1.6-.3.9-.5.3-.2.5-.5.7-.8.2-.3.3-.6.3-1-.7 0-1.2-.2-1.7-.6-.6-.3-.8-.9-.8-1.6z" fill="#fff"/></svg><svg viewBox="0 0 20 14" id="yt" xmlns="http://www.w3.org/2000/svg"><path d="M17.18 0H2.81C1.31 0 0 1.3 0 2.8v8.3C0 12.7 1.3 14 2.81 14h14.37A2.8 2.8 0 0020 11.2V2.8c.1-1.5-1.2-2.8-2.8-2.8zM7.03 10.4V3.6L13.87 7l-6.84 3.4z" fill="#fff"/></svg><svg viewBox="0 0 1200 1200" id="zig-zag" xmlns="http://www.w3.org/2000/svg"><path d="M0 1200v-57l250 24v-24l350 57 350-57v24l250-24v57z" fill="#fff"/></svg><svg viewBox="0 0 320 37" fill="none" id="zz" xmlns="http://www.w3.org/2000/svg"><path fill-rule="evenodd" clip-rule="evenodd" d="M-225 0h384v37L-225 0zm768 0H159v37L543 0z" fill="#fff"/></svg></svg>