<svg viewBox="0 0 39 37" xmlns="http://www.w3.org/2000/svg"><path d="M19.47 0 0 19.03l1.1 1.06 4.07-3.96v19.23H3.13v1.47H36.5v-1.47h-2.66V16.08l4.07 3.96L39 18.97l-5.17-5.03V.2h-7.2v6.72L19.47 0zm18.44 20.04h-.01.01zM28.14 1.73h4.13v10.73l-4.13-4.02V1.73zm-8.67.41 12.8 12.46v20.7H6.73V14.6L19.47 2.14zm.11 7.78a3.94 3.94 0 0 0-4.02 3.92 4.01 4.01 0 0 0 4.02 3.96 4.03 4.03 0 0 0 4.07-3.96 3.98 3.98 0 0 0-4.07-3.92zm-.01 1.37h.01a2.59 2.59 0 0 1 2.6 2.55 2.58 2.58 0 0 1-2.6 2.54 2.59 2.59 0 0 1-2.6-2.54 2.6 2.6 0 0 1 2.59-2.55zM8.82 21.06v2h1.57v-2H8.82zm3.08 0v2h1.57v-2H11.9zm3.5 0v12.16h8.35V21.06H15.4zm10.08 0v2h1.56v-2h-1.56zm3.12 0v2h1.57v-2H28.6zm-11.68 1.48h5.27v9.2h-5.27v-9.2zm13.25 1.56h.01-.01zm0 0H28.6v2h1.57v-2zm-21.35 0v2h1.57v-2H8.82zm3.08 0v2h1.57v-2H11.9zm13.58 0v2h1.56v-2h-1.56z" fill="#81B3D2"/></svg>
